<svg xmlns="http://www.w3.org/2000/svg" viewBox="0 0 490.4 490.4"><path d="M490.4 381.45v-211.8c0-33.6-27.3-60.9-60.9-60.9h-73.9l-1-4.2c-8.1-34.9-38.8-59.3-74.7-59.3h-69.4c-35.9 0-66.6 24.4-74.7 59.3l-1 4.2H60.9c-33.6 0-60.9 27.3-60.9 60.9v211.8c0 35.1 28.6 63.7 63.7 63.7h362.8c35.3.1 63.9-28.5 63.9-63.7zm-34.3 0c0 16.2-13.2 29.4-29.4 29.4H63.8c-16.2 0-29.4-13.2-29.4-29.4v-211.8c0-14.6 11.9-26.6 26.6-26.6h87.5c8 0 14.9-5.5 16.7-13.3l4.1-17.4c4.5-19.3 21.5-32.8 41.3-32.8H280c19.8 0 36.8 13.5 41.3 32.8l4.1 17.4c1.8 7.8 8.7 13.3 16.7 13.3h87.5c14.6 0 26.6 11.9 26.6 26.6v211.8h-.1z"/><path d="M245.2 171.55c-58.4 0-106 47.5-106 106 0 58.4 47.5 106 106 106 58.4 0 106-47.5 106-106-.1-58.4-47.6-106-106-106zm0 177.6c-39.5 0-71.7-32.1-71.7-71.7 0-39.5 32.1-71.7 71.7-71.7 39.5 0 71.7 32.1 71.7 71.7-.1 39.6-32.2 71.7-71.7 71.7zM81.4 171.55h-.6c-9.5 0-17.1 7.7-17.1 17.2s7.7 17.1 17.1 17.1h.6c9.5 0 17.2-7.7 17.2-17.1-.1-9.5-7.8-17.2-17.2-17.2z"/></svg>