<svg xmlns="http://www.w3.org/2000/svg" viewBox="0 0 489.7 489.7"><path d="M411.8 131.7c-9.5 0-17.2 7.7-17.2 17.2v288.2c0 10.1-8.2 18.4-18.4 18.4H113.3c-10.1 0-18.4-8.2-18.4-18.4V148.8c0-9.5-7.7-17.2-17.1-17.2-9.5 0-17.2 7.7-17.2 17.2V437c0 29 23.6 52.7 52.7 52.7h262.9c29 0 52.7-23.6 52.7-52.7V148.8c0-9.5-7.7-17.1-17.1-17.1zm45.5-55.8H353V56.1C353 25.2 327.8 0 296.9 0H192.7c-31 0-56.1 25.2-56.1 56.1v19.8H32.3c-9.5 0-17.1 7.7-17.1 17.2s7.7 17.1 17.1 17.1h425c9.5 0 17.2-7.7 17.2-17.1-.1-9.6-7.7-17.2-17.2-17.2zM170.9 56.1c0-12 9.8-21.8 21.8-21.8h104.2c12 0 21.8 9.8 21.8 21.8v19.8H170.9V56.1z"/><path d="M262 396.6V180.9c0-9.5-7.7-17.1-17.1-17.1s-17.1 7.7-17.1 17.1v215.7c0 9.5 7.7 17.1 17.1 17.1 9.4 0 17.1-7.6 17.1-17.1zm-75.9 0V180.9c0-9.5-7.7-17.1-17.2-17.1s-17.1 7.7-17.1 17.1v215.7c0 9.5 7.7 17.1 17.1 17.1 9.5 0 17.2-7.6 17.2-17.1zm151.7 0V180.9c0-9.5-7.7-17.1-17.1-17.1s-17.1 7.7-17.1 17.1v215.7c0 9.5 7.7 17.1 17.1 17.1s17.1-7.6 17.1-17.1z"/></svg>