<svg xmlns="http://www.w3.org/2000/svg" viewBox="0 0 490.2 490.2"><path d="M146.146 99.2v127.6c0 54.7 44.5 99.2 99.2 99.2s99.2-44.5 99.2-99.2V99.2c0-54.7-44.5-99.2-99.2-99.2s-99.2 44.5-99.2 99.2zm164.1 0v127.6c0 35.8-29.1 64.9-64.9 64.9s-64.9-29.1-64.9-64.9V99.2c0-35.8 29.1-64.9 64.9-64.9s64.9 29.1 64.9 64.9z"/><path d="M393.046 209.7c-9.5 0-17.2 7.7-17.2 17.1 0 72-58.6 130.6-130.6 130.6s-130.6-58.6-130.6-130.6c0-9.5-7.7-17.1-17.2-17.1s-17.2 7.7-17.2 17.1c0 85.1 64.8 155.4 147.7 164v65.1h-57.3c-9.5 0-17.2 7.7-17.2 17.2s7.7 17.1 17.2 17.1h148.9c9.5 0 17.2-7.7 17.2-17.1 0-9.5-7.7-17.2-17.2-17.2h-57.3v-65.1c82.9-8.6 147.7-78.9 147.7-164 .3-9.4-7.4-17.1-16.9-17.1z"/></svg>